# xmcd CD database file
#
# Track frame offsets:
#	150
#	21077
#	43810
#	56955
#	84623
#	103855
#	117178
#	129604
#	151675
#	171328
#	183542
#
# Disc length: 2772 seconds
#
# Revision: 0
# Processed by: cddbd v1.5.1PL2 Copyright (c) Steve Scherf et al.
# Submitted via: CDex 1.51
#
DISCID=960ad20b
DTITLE=Romane and Stochello Rosenberg - Double jeu
DYEAR=2004
DGENRE=Jazz
TTITLE0=Strange Eyes
TTITLE1=Nature Boy
TTITLE2=R'N bis
TTITLE3=Blue Rondo à la Turk
TTITLE4=Bop Tension
TTITLE5=Double Jeu
TTITLE6=Blues for Barney
TTITLE7=All Jazzy
TTITLE8=Accent Groove
TTITLE9=Melody for Babik
TTITLE10=Black Mamba
EXTD=YEAR: 2004
EXTT0=
EXTT1=
EXTT2=
EXTT3=
EXTT4=
EXTT5=
EXTT6=
EXTT7=
EXTT8=
EXTT9=
EXTT10=
PLAYORDER=
